<svg width="64" height="64" viewBox="0 0 64 64" fill="none" xmlns="http://www.w3.org/2000/svg">
  <defs>
    <linearGradient id="gradient" x1="0%" y1="0%" x2="100%" y2="100%">
      <stop offset="0%" style="stop-color:#667eea"/>
      <stop offset="50%" style="stop-color:#764ba2"/>
      <stop offset="100%" style="stop-color:#f093fb"/>
    </linearGradient>
  </defs>
  <rect width="64" height="64" rx="16" fill="url(#gradient)"/>
  <path d="M32 12C42.4934 12 51 20.5066 51 31C51 41.4934 42.4934 50 32 50C21.5066 50 13 41.4934 13 31C13 20.5066 21.5066 12 32 12Z" fill="white" fill-opacity="0.9"/>
  <path d="M25 26L32 20L39 26V40C39 41.1046 38.1046 42 37 42H27C25.8954 42 25 41.1046 25 40V26Z" stroke="url(#gradient)" stroke-width="2" fill="none"/>
  <circle cx="29" cy="30" r="2" fill="url(#gradient)"/>
  <circle cx="35" cy="30" r="2" fill="url(#gradient)"/>
  <path d="M29 36C29 36 31 38 35 36" stroke="url(#gradient)" stroke-width="2" stroke-linecap="round"/>
  <path d="M20 45L32 38L44 45" stroke="white" stroke-width="3" stroke-linecap="round" fill="none"/>
</svg>